# xmcd
#
# Track frame offsets:
#	150
#	12976
#	34740
#	46425
#	64054
#	78415
#	92778
#	108017
#	122920
#	140409
#	157561
#	179072
#	193203
#	208262
#	230286
#	244355
#	266908
#
# Disc length: 3720 seconds
#
# Revision: 0
# Processed by: cddbd v1.5.2PL0 Copyright (c) Steve Scherf et al.
# Submitted via: audiograbber 1.83.01
#
DISCID=f10e8611
DTITLE=Celia - C D # 1
DYEAR=2013
DGENRE=
TTITLE0=Black Horse And A Cherry Tree
TTITLE1=Boogle Ooogle Oogle
TTITLE2=Boogie Woogle Bugle Boy
TTITLE3=Burn
TTITLE4=Change
TTITLE5=Did I Shave My legs For This
TTITLE6=Hanky Panky
TTITLE7=Here For The Party
TTITLE8=Ain't Gonna Take It Anymore
TTITLE9=I Want You 
TTITLE10=I Will Survive
TTITLE11=In Care Of The Blues
TTITLE12=Independence Day
TTITLE13=It's Rain'n Men
TTITLE14=It's Your Call 
TTITLE15=Killing Me Softly
TTITLE16=Go Tell It On The Mountain
EXTD=
EXTT0=
EXTT1=
EXTT2=
EXTT3=
EXTT4=
EXTT5=
EXTT6=
EXTT7=
EXTT8=
EXTT9=
EXTT10=
EXTT11=
EXTT12=
EXTT13=
EXTT14=
EXTT15=
EXTT16=
PLAYORDER=
